Coordinates
version=1
nRows=13
nColumns=40
inDegrees=yes

Units are S.I. units (second, meters, Newtons, ...)
If the header above contains a line with 'inDegrees', this indicates whether rotational values are in degrees (yes) or radians (no).

endheader
time	pelvis_tilt	pelvis_list	pelvis_rotation	pelvis_tx	pelvis_ty	pelvis_tz	hip_flexion_r	hip_adduction_r	hip_rotation_r	knee_angle_r	knee_angle_r_beta	ankle_angle_r	subtalar_angle_r	mtp_angle_r	hip_flexion_l	hip_adduction_l	hip_rotation_l	knee_angle_l	knee_angle_l_beta	ankle_angle_l	subtalar_angle_l	mtp_angle_l	lumbar_extension	lumbar_bending	lumbar_rotation	arm_flex_r	arm_add_r	arm_rot_r	elbow_flex_r	pro_sup_r	wrist_flex_r	wrist_dev_r	arm_flex_l	arm_add_l	arm_rot_l	elbow_flex_l	pro_sup_l	wrist_flex_l	wrist_dev_l
      6.10500000	     -4.93366847	      4.55922458	     -0.77298792	     -0.27563339	      1.26548254	     -0.92176880	      0.33831116	     -9.84571230	    -12.72977794	      6.87126167	      0.11992614	    -35.37517866	      0.00000000	      0.00000000	     -0.96114157	     -0.44704998	     -7.14206963	      6.58306069	      0.11489608	    -20.33207141	      0.00000000	      0.00000000	      6.66721499	     -5.16966598	     -3.59370940	     -0.69495805	    -33.75432141	     67.75579997	     60.52313004	     87.57144718	      0.00000000	      0.00000000	      0.05629500	    -40.08308911	     69.29015079	     72.18996130	     87.75211710	      0.00000000	      0.00000000
      6.11000000	     -4.75025067	      4.35065277	     -0.62333922	     -0.27473700	      1.27321340	     -0.92185538	     -0.43775119	     -9.28474887	    -12.31012367	      6.22390396	      0.10862762	    -35.25770694	      0.00000000	      0.00000000	     -1.69082968	     -0.46709736	     -5.68600276	      5.91793127	      0.10328739	    -20.41344227	      0.00000000	      0.00000000	      6.81699883	     -5.04969023	     -3.92333049	     -0.82361816	    -33.82478574	     67.60618628	     60.64467557	     87.55207990	      0.00000000	      0.00000000	     -0.32939676	    -40.03061851	     68.90042848	     71.98179071	     87.74313287	      0.00000000	      0.00000000
      6.11500000	     -4.35770849	      4.35133621	     -0.86537775	     -0.27294887	      1.28109238	     -0.92210335	     -1.35747046	     -9.02480404	    -11.68607299	      5.65403850	      0.09868159	    -35.11360521	      0.00000000	      0.00000000	     -2.72544491	     -0.23336211	     -5.41120991	      5.19035773	      0.09058883	    -20.33613575	      0.00000000	      0.00000000	      6.91641658	     -5.01518959	     -3.75147765	     -1.07788788	    -34.05998997	     67.57119447	     60.94837857	     87.55239699	      0.00000000	      0.00000000	     -0.66326782	    -39.81344777	     68.66711486	     71.59307056	     87.75389783	      0.00000000	      0.00000000
      6.12000000	     -4.22661266	      3.97232393	     -0.78709525	     -0.27184327	      1.28837740	     -0.92207253	     -2.05574512	     -8.31572751	    -11.16880674	      4.92802260	      0.08601022	    -35.02808252	      0.00000000	      0.00000000	     -3.26719171	     -0.54749949	     -4.58109978	      4.75844964	      0.08305061	    -20.50124373	      0.00000000	      0.00000000	      7.14736077	     -4.64853128	     -3.91783631	     -1.35802352	    -34.17200374	     67.38137439	     61.22024057	     87.53360591	      0.00000000	      0.00000000	     -0.93559617	    -39.78097298	     68.46831306	     71.55066203	     87.75314362	      0.00000000	      0.00000000
      6.12500000	     -4.01656258	      3.99347647	     -1.10021066	     -0.26984019	      1.29552580	     -0.92225153	     -2.69530327	     -8.15934360	    -10.79571523	      4.38105571	      0.07646385	    -35.01161485	      0.00000000	      0.00000000	     -3.99174878	     -0.37426346	     -4.80941525	      4.26740735	      0.07448031	    -20.23645096	      0.00000000	      0.00000000	      7.44703553	     -4.65403056	     -3.65278712	     -1.67093291	    -34.33780930	     67.28155644	     61.46085223	     87.52994427	      0.00000000	      0.00000000	     -1.31034287	    -39.68429675	     68.26980085	     71.37564107	     87.74838604	      0.00000000	      0.00000000
      6.13000000	     -3.83729936	      3.65206434	     -1.12535439	     -0.26856833	      1.30260972	     -0.92216986	     -3.43685163	     -7.54397838	     -9.79793717	      3.53227731	      0.06164987	    -35.28579075	      0.00000000	      0.00000000	     -4.51437568	     -0.69869928	     -4.75241214	      3.99453795	      0.06971784	    -20.39539174	      0.00000000	      0.00000000	      7.65785533	     -4.30317390	     -3.69333634	     -2.08908656	    -34.47157029	     66.82129801	     61.78738313	     87.51097290	      0.00000000	      0.00000000	     -1.60426583	    -39.59014804	     67.97189171	     71.21591480	     87.74795772	      0.00000000	      0.00000000
      6.13500000	     -3.36234834	      3.64723953	     -1.35777550	     -0.26662196	      1.30959616	     -0.92231734	     -4.47898622	     -7.36436043	     -9.01046053	      2.79631763	      0.04880495	    -35.24840421	      0.00000000	      0.00000000	     -5.40357545	     -0.60647826	     -5.33162741	      3.72029383	      0.06493138	    -20.26523928	      0.00000000	      0.00000000	      7.60085144	     -4.27087328	     -3.49826688	     -2.46881384	    -34.68337875	     66.53525460	     62.18956516	     87.50472818	      0.00000000	      0.00000000	     -1.92997089	    -39.56568526	     67.70303734	     71.22669669	     87.74288010	      0.00000000	      0.00000000
      6.14000000	     -3.35737576	      3.29040458	     -1.36732450	     -0.26561266	      1.31588267	     -0.92228855	     -4.82145173	     -6.79728752	     -8.62442721	      2.40450440	      0.04196652	    -35.18438453	      0.00000000	      0.00000000	     -5.59184286	     -0.99010649	     -5.75499614	      3.77287218	      0.06584904	    -19.94523561	      0.00000000	      0.00000000	      8.00515963	     -3.88715084	     -3.48297169	     -2.79057248	    -34.81868369	     66.32410792	     62.43469875	     87.49154071	      0.00000000	      0.00000000	     -2.09905895	    -39.52802037	     67.62857109	     71.20204306	     87.73957838	      0.00000000	      0.00000000
      6.14500000	     -3.13057683	      3.28947731	     -1.55599011	     -0.26381328	      1.32213329	     -0.92256307	     -5.38973428	     -6.67579791	     -8.47235828	      2.06816310	      0.03609626	    -35.02172934	      0.00000000	      0.00000000	     -6.15592352	     -0.91993426	     -6.55675714	      3.61158389	      0.06303403	    -19.52419161	      0.00000000	      0.00000000	      8.20458790	     -3.85069241	     -3.32011113	     -3.11779618	    -35.01521308	     66.20859573	     62.76115404	     87.48835713	      0.00000000	      0.00000000	     -2.39827713	    -39.49217406	     67.49012719	     71.23505107	     87.73109177	      0.00000000	      0.00000000
      6.15000000	     -2.74756029	      3.15266996	     -1.59142188	     -0.26243166	      1.32828907	     -0.92273350	     -6.12110397	     -6.38273992	     -8.28135192	      1.79330523	      0.03129908	    -34.75207608	      0.00000000	      0.00000000	     -6.76755939	     -1.03274666	     -7.16650528	      3.68049716	      0.06423679	    -19.15158465	      0.00000000	      0.00000000	      8.22426648	     -3.68150047	     -3.31446519	     -3.39976489	    -35.18852205	     66.01665108	     63.09782085	     87.47386419	      0.00000000	      0.00000000	     -2.55437890	    -39.47993452	     67.34855391	     71.25653860	     87.72024466	      0.00000000	      0.00000000
      6.15500000	     -2.57967281	      3.04765054	     -1.73808622	     -0.26122904	      1.33409294	     -0.92278322	     -6.52354733	     -6.15507085	     -8.01375283	      1.65430087	      0.02887300	    -34.63023588	      0.00000000	      0.00000000	     -7.10602770	     -1.12049373	     -7.74090258	      3.78886722	      0.06612821	    -18.97196585	      0.00000000	      0.00000000	      8.41600327	     -3.54380231	     -3.17179442	     -3.72816949	    -35.34251881	     65.69649143	     63.38219074	     87.45198784	      0.00000000	      0.00000000	     -2.78669560	    -39.45162190	     67.13674983	     71.29905802	     87.71979155	      0.00000000	      0.00000000
      6.16000000	     -2.51169378	      3.05453300	     -1.78339559	     -0.26031997	      1.33948442	     -0.92293356	     -6.74774123	     -6.04470989	     -8.02002841	      1.65977169	      0.02896848	    -34.63248606	      0.00000000	      0.00000000	     -7.33799094	     -1.08730069	     -7.88894550	      3.87130526	      0.06756702	    -18.97665305	      0.00000000	      0.00000000	      8.72136818	     -3.53155711	     -3.17023834	     -3.89244610	    -35.36547928	     65.65804142	     63.40049016	     87.44826549	      0.00000000	      0.00000000	     -2.98721302	    -39.45351696	     67.17550338	     71.34157298	     87.72268401	      0.00000000	      0.00000000
      6.16500000	     -2.13876654	      2.94751221	     -1.75741562	     -0.25939160	      1.34476116	     -0.92302190	     -7.38298116	     -5.78791466	     -8.21701520	      1.56061876	      0.02723794	    -34.48619017	      0.00000000	      0.00000000	     -7.84531126	     -1.18714699	     -8.75148151	      4.03642061	      0.07044883	    -18.86312404	      0.00000000	      0.00000000	      8.62675966	     -3.43304300	     -3.25103623	     -4.14071530	    -35.48143220	     65.29911163	     63.70811391	     87.42599030	      0.00000000	      0.00000000	     -3.12038540	    -39.51368510	     66.95440264	     71.53229450	     87.71197238	      0.00000000	      0.00000000
